# xmcd CD database file
#
# Track frame offsets:
#	150
#	19755
#	38410
#	55812
#	72947
#	89087
#	106800
#	121655
#	135752
#	151012
#	167045
#	187580
#	204402
#	217700
#
# Disc length: 3129 seconds
#
# Revision: 3
# Processed by: cddbd v1.5.1PL0 Copyright (c) Steve Scherf et al.
# Submitted via: CDex 1.51
#
DISCID=9f0c370e
DTITLE=Gian and Giovani - Na Batida Do Seu Coração(Dimas Som)
DYEAR=2003
DGENRE=Sertanejo
TTITLE0=A Gente Não Consegue Se Amar
TTITLE1=Na Batida Do Seu Coração
TTITLE2=Também Quero Ser Amado
TTITLE3=Querer Por Querer
TTITLE4=É Com O Mundo Que Se Aprende
TTITLE5=Na Última Hora
TTITLE6=Eu Boto Fé Em Mim
TTITLE7=Vidas De Cristal
TTITLE8=E-U-T
TTITLE9=Me Faz Perder O Medo
TTITLE10=Infelizmente Você Me Perdeu
TTITLE11=Que Bom Te Encontrar De Novo
TTITLE12=Só Da Boca Pra Fora
TTITLE13=Das 6:00 Da Tarde Ás 6:00 Da Manhã
EXTD=YEAR: 2003
EXTT0=
EXTT1=
EXTT2=
EXTT3=
EXTT4=
EXTT5=
EXTT6=
EXTT7=
EXTT8=
EXTT9=
EXTT10=
EXTT11=
EXTT12=
EXTT13=
PLAYORDER=
